<svg xmlns="http://www.w3.org/2000/svg" viewBox="0 0 264 72" width="528" height="144" role="img" aria-label="BPT, Blitz Portfolio Templates"><title>BPT, Blitz Portfolio Templates</title><g transform="translate(4 4)"><defs><linearGradient id="g" x1="8" y1="4" x2="58" y2="62" gradientUnits="userSpaceOnUse"><stop offset="0" stop-color="#FF7A2E"/><stop offset=".55" stop-color="#FF4D00"/><stop offset="1" stop-color="#D93A00"/></linearGradient></defs><rect width="64" height="64" rx="15" fill="url(#g)"/><path d="M20 15.5V48.5M20 15.5H32.5a8.2 8.2 0 0 1 0 16.4H20M20 31.9H34.8a8.3 8.3 0 0 1 0 16.6H20" fill="none" stroke="#FFF7EE" stroke-width="6.2" stroke-linecap="round" stroke-linejoin="round"/><g transform="translate(3.2 -0.4)"><path d="M47.6 6.2 38.4 20.4h6.3l-2.2 10.2 10.6-15.2h-6.5z" fill="#FFD166"/></g></g><g transform="translate(92 19)"><path transform="translate(0 0)" d="M0 0V34M0 0H11.2a7.9 7.9 0 0 1 0 15.8H0M0 15.8H13.4a9.1 9.1 0 0 1 0 18.2H0" fill="none" stroke="#FFF7EE" stroke-width="5.6" stroke-linecap="round" stroke-linejoin="round"/><path transform="translate(36 0)" d="M0 0V34M0 0H11.2a8.3 8.3 0 0 1 0 16.6H0" fill="none" stroke="#FFF7EE" stroke-width="5.6" stroke-linecap="round" stroke-linejoin="round"/><path transform="translate(66 0)" d="M0 0H22M11 0V34" fill="none" stroke="#FFF7EE" stroke-width="5.6" stroke-linecap="round" stroke-linejoin="round"/></g><text x="93" y="66" font-family="Helvetica Neue,Helvetica,Arial,sans-serif" font-size="6.6" font-weight="700" letter-spacing="1.9" fill="#FFF7EE" opacity=".62">BLITZ PORTFOLIO TEMPLATES</text></svg>